<svg width="414" height="463" viewBox="0 0 414 463" fill="none" xmlns="http://www.w3.org/2000/svg">
<path d="M307.474 328.849C341.498 328.849 369.08 302.379 369.08 269.725C369.08 237.072 341.498 210.601 307.474 210.601C273.449 210.601 245.867 237.072 245.867 269.725C245.867 302.379 273.449 328.849 307.474 328.849Z" fill="#FF6584"/>
<path d="M308.193 331.815C308.193 373.472 260.69 358.214 202.092 358.214C143.495 358.214 95.9922 373.472 95.9922 331.815C95.9922 290.159 143.495 207.363 202.092 207.363C260.69 207.363 308.193 290.159 308.193 331.815Z" fill="#F54300"/>
<path d="M414 366.747C401.71 364.749 389.892 363.033 378.544 361.599L383.03 353.252C381.517 352.748 374.871 357.528 374.871 357.528L380.758 333.297C373.15 334.178 369.282 358.919 369.282 358.919L360.782 350.554L364.897 359.958C335.045 356.495 305.01 354.681 274.94 354.525L278.78 347.38C277.267 346.876 270.621 351.657 270.621 351.657L276.508 327.426C268.9 328.306 265.032 353.047 265.032 353.047L256.532 344.683L260.89 354.643C251.024 354.833 242.017 355.237 233.852 355.773L235.207 353.252C234.248 352.932 231.224 354.738 229.14 356.102C228.54 356.147 227.952 356.193 227.361 356.239L232.936 333.297C226.729 334.016 223.012 350.61 221.853 356.701C221.036 356.774 220.227 356.848 219.432 356.924L213.018 350.612C218.391 342.612 226.255 336.299 226.255 336.299C216.179 339.175 210.894 343.994 208.133 348.487C207.886 325.522 211.865 302.695 219.886 281.058C219.886 281.058 199.061 324.55 201.718 353.744L202.002 358.383C173.596 355.64 148.619 354.57 127.118 354.525L130.957 347.38C129.445 346.876 122.798 351.657 122.798 351.657L128.686 327.426C121.078 328.306 117.209 353.047 117.209 353.047L108.709 344.683L113.068 354.643C95.7816 354.917 78.5215 356.042 61.3555 358.014C65.2391 346.884 78.4322 336.299 78.4322 336.299C68.3567 339.175 63.0716 343.994 60.3099 348.487C60.0631 325.522 64.0421 302.695 72.0636 281.058C72.0636 281.058 51.2379 324.55 53.8952 353.744L54.2131 358.928C36.5576 361.354 27.6812 363.878 27.6812 363.878L266.177 366.747C262.018 366.071 257.914 365.429 253.866 364.821L414 366.747ZM212.998 350.643L215.899 357.273C213.562 357.513 211.314 357.761 209.178 358.014C210.132 355.416 211.415 352.94 212.998 350.643Z" fill="#3F3D56"/>
<path d="M341.958 360.65C341.829 360.448 338.791 355.58 337.738 345.472C336.772 336.199 337.393 320.568 345.84 298.763C361.843 257.457 342.153 224.128 341.951 223.796L342.923 223.255C342.974 223.34 348.055 231.837 351.056 245.368C355.022 263.307 353.578 281.959 346.893 299.139C330.918 340.375 342.794 359.896 342.916 360.089L341.958 360.65Z" fill="#3F3D56"/>
<path d="M335.7 221.371C339.731 221.371 342.998 218.235 342.998 214.367C342.998 210.499 339.731 207.363 335.7 207.363C331.67 207.363 328.402 210.499 328.402 214.367C328.402 218.235 331.67 221.371 335.7 221.371Z" fill="#F54300"/>
<path d="M358.717 247.231C362.747 247.231 366.015 244.095 366.015 240.227C366.015 236.359 362.747 233.223 358.717 233.223C354.686 233.223 351.419 236.359 351.419 240.227C351.419 244.095 354.686 247.231 358.717 247.231Z" fill="#3F3D56"/>
<path d="M342.998 264.471C347.029 264.471 350.296 261.335 350.296 257.467C350.296 253.599 347.029 250.463 342.998 250.463C338.968 250.463 335.7 253.599 335.7 257.467C335.7 261.335 338.968 264.471 342.998 264.471Z" fill="#F54300"/>
<path d="M362.085 279.017C366.115 279.017 369.383 275.882 369.383 272.014C369.383 268.145 366.115 265.01 362.085 265.01C358.054 265.01 354.787 268.145 354.787 272.014C354.787 275.882 358.054 279.017 362.085 279.017Z" fill="#F54300"/>
<path d="M337.385 301.645C341.415 301.645 344.682 298.509 344.682 294.641C344.682 290.773 341.415 287.638 337.385 287.638C333.354 287.638 330.087 290.773 330.087 294.641C330.087 298.509 333.354 301.645 337.385 301.645Z" fill="#3F3D56"/>
<path d="M346.366 360.908C346.366 360.908 339.068 343.668 360.962 330.738L346.366 360.908Z" fill="#3F3D56"/>
<path d="M337.391 360.595C337.391 360.595 334.07 342.262 308.363 342.419L337.391 360.595Z" fill="#3F3D56"/>
<path d="M219.373 61.6487C211.368 48.6676 195.531 48.0626 195.531 48.0626C195.531 48.0626 180.098 46.1686 170.198 65.939C160.97 84.3667 148.235 102.159 168.147 106.473L171.744 95.729L173.972 107.273C176.807 107.468 179.651 107.515 182.492 107.412C203.816 106.752 224.125 107.606 223.471 100.262C222.602 90.4991 227.076 74.1392 219.373 61.6487Z" fill="#2F2E41"/>
<path d="M161.673 166.418L159.989 195.51L209.391 200.36L211.074 170.189L194.233 159.953L161.673 166.418Z" fill="#A0616A"/>
<path d="M294.439 230.26C292.958 216.516 234.143 210.278 220.009 208.975L214.724 206.016L213.04 188.776C213.04 188.776 160.832 184.466 156.902 183.928C152.972 183.389 149.604 190.393 149.604 192.009C149.604 193.177 148.87 201.519 145.92 206.463C139.551 211.374 120.132 226.829 120.132 232.685C120.132 239.689 135.57 327.775 135.57 327.775L137.254 346.092L152.972 348.786L151.85 291.678C151.85 291.678 157.463 258.814 149.604 249.655V245.884C149.604 245.884 172.656 240.121 180.78 233.845C183.134 233.36 189.749 232.163 193.403 233.204C193.904 233.487 194.482 233.778 195.124 234.073C195.206 234.145 195.284 234.22 195.356 234.301C195.356 234.301 195.379 234.267 195.42 234.208C205.929 238.929 232.89 244.883 243.915 243.19C252.419 241.945 261.113 243.462 268.616 247.5C262.441 255.043 266.932 276.593 266.932 276.593L267.493 322.926L275.353 332.085H286.019V306.763C286.019 306.763 296.123 245.884 294.439 230.26Z" fill="#2F2E41"/>
<path d="M190.584 97.1882C200.815 97.1882 209.11 89.2283 209.11 79.4093C209.11 69.5904 200.815 61.6305 190.584 61.6305C180.353 61.6305 172.059 69.5904 172.059 79.4093C172.059 89.2283 180.353 97.1882 190.584 97.1882Z" fill="#A0616A"/>
<path d="M179.357 90.723C179.357 90.723 182.164 102.576 178.234 103.653C175.125 104.642 172.118 105.904 169.252 107.424L164.761 121.432V135.44L219.214 141.366L220.899 136.517V129.513L214.723 118.738L211.917 116.044C211.917 116.044 199.566 103.114 202.373 90.723H179.357Z" fill="#A0616A"/>
<path d="M227.915 133.554C227.915 133.554 229.599 152.41 227.915 161.03C226.231 169.65 226.793 182.581 226.793 182.581L214.442 180.426V151.333L217.249 135.709L227.915 133.554Z" fill="#A0616A"/>
<path d="M197.469 59.1185C203.793 59.1185 208.92 54.1981 208.92 48.1285C208.92 42.059 203.793 37.1386 197.469 37.1386C191.144 37.1386 186.017 42.059 186.017 48.1285C186.017 54.1981 191.144 59.1185 197.469 59.1185Z" fill="#2F2E41"/>
<path d="M184.812 45.2364C184.812 42.5221 185.859 39.904 187.751 37.8863C189.643 35.8686 192.245 34.5941 195.058 34.3082C193.461 34.145 191.846 34.3061 190.318 34.7809C188.79 35.2557 187.383 36.0336 186.189 37.0642C184.994 38.0949 184.039 39.355 183.385 40.7629C182.732 42.1709 182.394 43.695 182.394 45.2364C182.394 46.7778 182.732 48.3019 183.385 49.7098C184.039 51.1177 184.994 52.3779 186.189 53.4085C187.383 54.4391 188.79 55.2171 190.318 55.6919C191.846 56.1667 193.461 56.3277 195.058 56.1645C192.245 55.8787 189.643 54.6042 187.751 52.5865C185.859 50.5688 184.812 47.9506 184.812 45.2364Z" fill="#2F2E41"/>
<path d="M215.834 60.3975L200.187 52.5313L178.58 55.7494L174.11 74.6984L185.238 74.2873L188.347 67.3258V74.1725L193.482 73.9831L196.462 62.8996L198.325 74.6984L216.579 74.3408L215.834 60.3975Z" fill="#2F2E41"/>
<path d="M227.354 200.359H158.866V266.087H227.354V200.359Z" fill="#F2F2F2"/>
<path d="M147.639 124.395L137.534 164.263C137.534 164.263 133.604 172.883 142.586 178.271C151.568 183.658 171.778 190.662 171.778 190.662C171.778 190.662 189.742 214.367 191.988 204.669C194.233 194.972 178.515 182.581 178.515 182.581L151.007 165.879L161.673 137.864L147.639 124.395Z" fill="#A0616A"/>
<path d="M220.618 174.499C220.618 174.499 229.039 173.422 228.477 182.58C227.916 191.739 216.689 192.817 216.689 192.817C216.689 192.817 211.636 213.289 204.338 209.518C197.04 205.747 208.268 185.274 208.268 185.274L217.811 178.27L220.618 174.499Z" fill="#A0616A"/>
<path d="M166.445 120.893L175.427 103.114L157.463 109.041C157.463 109.041 147.358 113.889 146.797 125.203C146.236 136.517 159.709 142.443 159.709 142.443C159.709 142.443 161.954 158.606 160.831 160.761C159.709 162.916 160.831 171.536 160.831 171.536C160.831 171.536 182.444 165.879 193.111 172.883C203.777 179.887 212.478 175.846 212.478 175.846C212.478 175.846 211.917 162.377 216.408 160.222C220.899 158.067 224.828 147.831 220.899 141.366C220.899 141.366 229.881 142.443 229.319 134.362C228.758 126.281 224.267 119.277 216.969 116.044C209.671 112.812 208.864 112.295 208.864 112.295L219.215 130.591V135.44C219.215 135.44 200.892 124.215 182.764 123.28C176.85 123.02 171.043 124.855 166.446 128.435L166.445 128.436V120.893Z" fill="#2F2E41"/>
<path d="M152.099 328C152.099 328 160.065 331.598 162.408 332.947C164.751 334.296 174.122 331.598 172.248 339.692C170.374 347.787 162.408 355.432 162.408 355.432C162.408 355.432 158.659 359.479 158.659 362.178C158.659 364.876 149.287 385.562 138.041 384.663C126.795 383.763 128.669 372.97 128.669 372.97L131.012 361.278C131.012 361.278 135.698 341.491 136.635 341.941C137.572 342.391 139.915 345.539 139.915 345.539C139.915 345.539 151.63 341.042 152.099 328Z" fill="#D0CDE1"/>
<path d="M268.928 314.531C268.928 314.531 260.962 318.129 258.619 319.478C256.276 320.827 246.904 318.129 248.779 326.224C250.653 334.318 258.619 341.963 258.619 341.963C258.619 341.963 262.368 346.011 262.368 348.709C262.368 351.407 271.739 372.093 282.985 371.194C294.231 370.295 292.357 359.502 292.357 359.502L290.014 347.809C290.014 347.809 285.328 328.022 284.391 328.472C283.454 328.922 281.111 332.07 281.111 332.07C281.111 332.07 269.396 327.573 268.928 314.531Z" fill="#D0CDE1"/>
<circle cx="127.5" cy="258.5" r="203.654" stroke="#010038" stroke-opacity="0.14"/>
<circle cx="127.5" cy="258.5" r="258" stroke="#010038" stroke-opacity="0.14"/>
<circle cx="127.5" cy="258.5" r="144.303" stroke="#010038" stroke-opacity="0.14"/>
<circle cx="127.5" cy="258.5" r="89.2421" stroke="#010038" stroke-opacity="0.14"/>
</svg>
